<svg xmlns="http://www.w3.org/2000/svg" viewBox="0 0 100 100">
  <defs>
    <linearGradient id="grad1" x1="0%" y1="0%" x2="100%" y2="100%">
      <stop offset="0%" style="stop-color:#3b82f6;stop-opacity:1" />
      <stop offset="100%" style="stop-color:#1d4ed8;stop-opacity:1" />
    </linearGradient>
  </defs>
  
  <!-- Background circle -->
  <circle cx="50" cy="50" r="45" fill="url(#grad1)" stroke="#1e40af" stroke-width="2"/>
  
  <!-- AI Brain icon -->
  <path d="M30 40 Q30 25 45 25 Q60 25 65 35 Q70 25 80 35 Q75 50 65 55 Q70 65 60 70 Q45 75 35 65 Q25 55 30 40" 
        fill="white" opacity="0.9"/>
  
  <!-- Neural connections -->
  <circle cx="40" cy="35" r="2" fill="#1d4ed8"/>
  <circle cx="50" cy="30" r="2" fill="#1d4ed8"/>
  <circle cx="60" cy="35" r="2" fill="#1d4ed8"/>
  <circle cx="35" cy="50" r="2" fill="#1d4ed8"/>
  <circle cx="50" cy="45" r="2" fill="#1d4ed8"/>
  <circle cx="65" cy="50" r="2" fill="#1d4ed8"/>
  <circle cx="45" cy="60" r="2" fill="#1d4ed8"/>
  <circle cx="55" cy="60" r="2" fill="#1d4ed8"/>
  
  <!-- Connecting lines -->
  <line x1="40" y1="35" x2="50" y2="30" stroke="#1d4ed8" stroke-width="1" opacity="0.6"/>
  <line x1="50" y1="30" x2="60" y2="35" stroke="#1d4ed8" stroke-width="1" opacity="0.6"/>
  <line x1="40" y1="35" x2="35" y2="50" stroke="#1d4ed8" stroke-width="1" opacity="0.6"/>
  <line x1="60" y1="35" x2="65" y2="50" stroke="#1d4ed8" stroke-width="1" opacity="0.6"/>
  <line x1="50" y1="45" x2="45" y2="60" stroke="#1d4ed8" stroke-width="1" opacity="0.6"/>
  <line x1="50" y1="45" x2="55" y2="60" stroke="#1d4ed8" stroke-width="1" opacity="0.6"/>
</svg> 